<svg xmlns="http://www.w3.org/2000/svg" width="80" height="80" viewBox="0 0 80 80">
  <path fill="#3DDB85" d="M58.4101459,50.67445 C56.5732667,50.67445 55.079069,49.1791944 55.079069,47.3422908 C55.079069,45.5053872 56.5732667,44.0112108 58.4101459,44.0112108 C60.2470892,44.0112108 61.7412229,45.5053872 61.7412229,47.3422908 C61.7412229,49.1791944 60.2470892,50.67445 58.4101459,50.67445 M21.5898724,50.67445 C19.752923,50.67445 18.2587954,49.1791944 18.2587954,47.3422908 C18.2587954,45.5053872 19.752923,44.0112108 21.5898724,44.0112108 C23.4267516,44.0112108 24.9209432,45.5053872 24.9209432,47.3422908 C24.9209432,49.1791944 23.4267485,50.67445 21.5898724,50.67445 M59.6048804,30.6079482 L66.2626807,19.0772772 C66.644361,18.4145172 66.4172918,17.5679671 65.755611,17.185232 C65.0939394,16.8035792 64.246304,17.030624 63.8635689,17.6922986 L57.1224906,29.3689256 C51.967467,27.0163032 46.1778289,25.705929 39.999971,25.705929 C33.8221803,25.705929 28.0325421,27.0163032 22.8775185,29.3689256 L16.1364464,17.6922986 C15.7537052,17.030624 14.9060728,16.8035792 14.2443951,17.185232 C13.5827204,17.5679671 13.3545994,18.4145172 13.7373346,19.0772772 L20.3951288,30.6079482 C8.96287237,36.825753 1.14386099,48.3996727 0,62.0732227 L80,62.0732227 C78.8550903,48.3996697 71.0360789,36.825753 59.6048804,30.6079482"/>
</svg>
