<svg xmlns="http://www.w3.org/2000/svg" width="80" height="80" viewBox="0 0 80 80">
  <path fill="#1A1918" d="M40,-7.17648163e-13 C62.0924153,-7.17648163e-13 80,17.9094746 80,40 C80,62.0921004 62.0924153,79.9995274 40,79.9995274 C17.9094746,79.9995274 -7.95807864e-13,62.0921004 -7.95807864e-13,40 C-7.95807864e-13,17.9094746 17.9094746,-7.17648163e-13 40,-7.17648163e-13 Z M40.6733809,15.8603062 C39.568272,15.8603062 38.5932499,16.4450674 38.1387331,17.5501764 L20.6629866,59.5802254 L26.6411585,59.5802254 L33.5590746,42.2511023 L54.203682,58.929476 C55.0339705,59.6008569 55.6330635,59.9044977 56.4118528,59.9044977 C57.9714785,59.9044977 59.3347141,58.7352904 59.3347141,57.0476251 C59.3347141,56.7729621 59.2377,56.3370292 59.0620983,55.8681806 L43.1398354,17.5501764 C42.6853189,16.4450674 41.7764425,15.8603062 40.6733809,15.8603062 Z M40.6733809,24.4350195 L51.0245843,49.9829282 L35.3892685,37.6668767 L40.6733809,24.4350195 Z"/>
</svg>
