<svg xmlns="http://www.w3.org/2000/svg" width="80" height="80" viewBox="0 0 80 80">
  <path d="M40.0529563,23.0646567 C43.1975457,23.0646567 48.7962288,18.9352361 55.3810306,19.3274733 C57.9362868,19.5251274 65.3068519,20.3118116 70.0240745,27.2886068 C69.6309211,27.5872993 61.2775475,32.4038416 61.3768025,42.5299565 C61.4742802,54.6235208 71.9875956,58.6566923 72.0862974,58.7550294 C71.9875958,59.0519416 70.4184582,64.4605251 66.585333,70.0619096 C63.244076,74.9804084 59.8034955,79.798181 54.3001389,79.8965768 C48.993268,79.9949139 47.223225,76.7487329 41.1338518,76.7487329 C35.0399874,76.7487329 33.0749951,79.798181 28.0617197,79.9949139 C22.7557095,80.1892514 18.7288628,74.7788846 15.387539,69.8651767 C8.50705381,59.93309 3.29882784,41.8437541 10.3742642,29.6488451 C13.8142319,23.5528959 20.1042101,19.7200783 26.8830418,19.6205141 C32.0912698,19.5251272 36.9066454,23.0646567 40.0529563,23.0646567 Z M55.4325556,-1.95399252e-14 C55.9263927,4.7354498 54.053954,9.36952015 51.2946646,12.8207905 C48.4358403,16.1752404 43.9057984,18.834938 39.3715677,18.4416158 C38.7803502,13.9046756 41.0482076,9.07659163 43.6105298,6.11879106 C46.464241,2.66481062 51.3933338,0.200849264 55.4325556,-1.95399252e-14 Z"/>
</svg>
