<svg xmlns="http://www.w3.org/2000/svg" width="80" height="80"><g fill="none" fill-rule="evenodd"><path fill="#252F3E" fill-rule="nonzero" d="M22.623 33.325c0 .98.105 1.774.29 2.357.213.583.478 1.219.849 1.907.132.212.185.424.185.61 0 .265-.159.53-.503.794l-1.67 1.113c-.238.159-.476.238-.688.238-.265 0-.53-.132-.795-.37a8.195 8.195 0 0 1-.953-1.246c-.265-.45-.53-.953-.821-1.562-2.067 2.437-4.663 3.655-7.789 3.655-2.225 0-4-.636-5.298-1.907-1.298-1.272-1.96-2.967-1.96-5.086 0-2.252.795-4.08 2.41-5.457 1.617-1.378 3.762-2.066 6.49-2.066.902 0 1.829.08 2.809.212.98.132 1.987.344 3.046.582v-1.933c0-2.014-.424-3.418-1.245-4.239-.848-.821-2.278-1.218-4.318-1.218-.927 0-1.88.106-2.86.344s-1.934.53-2.862.9a7.6 7.6 0 0 1-.927.345c-.185.053-.318.08-.424.08-.37 0-.556-.265-.556-.822v-1.298c0-.424.053-.741.186-.927.132-.185.37-.37.741-.556.927-.477 2.04-.874 3.338-1.192 1.298-.345 2.676-.504 4.132-.504 3.153 0 5.457.716 6.94 2.146 1.458 1.43 2.2 3.603 2.2 6.517v8.583h.053zM11.868 37.35c.874 0 1.774-.159 2.728-.477.954-.318 1.801-.9 2.517-1.695.423-.504.741-1.06.9-1.696a9.51 9.51 0 0 0 .265-2.304v-1.113a22.122 22.122 0 0 0-2.437-.45 19.96 19.96 0 0 0-2.49-.159c-1.775 0-3.073.344-3.947 1.06-.874.715-1.298 1.721-1.298 3.046 0 1.245.318 2.172.98 2.808.636.662 1.563.98 2.782.98zm21.271 2.86c-.477 0-.795-.079-1.007-.264-.211-.159-.397-.53-.556-1.033l-6.225-20.477c-.159-.53-.238-.874-.238-1.06 0-.423.212-.662.635-.662h2.596c.504 0 .848.08 1.033.265.212.16.371.53.53 1.033l4.45 17.537 4.133-17.537c.133-.53.291-.874.503-1.033.212-.159.583-.265 1.06-.265h2.12c.502 0 .847.08 1.059.265.212.16.397.53.503 1.033l4.186 17.749 4.582-17.749c.16-.53.345-.874.53-1.033.212-.159.556-.265 1.033-.265h2.464c.424 0 .662.212.662.662 0 .133-.026.265-.053.424-.026.16-.08.371-.185.663L50.57 38.94c-.16.53-.345.875-.557 1.034-.212.158-.556.264-1.006.264h-2.279c-.503 0-.847-.08-1.06-.264-.211-.186-.396-.53-.502-1.06L41.06 21.828l-4.08 17.06c-.132.53-.291.874-.503 1.059-.212.185-.583.265-1.06.265H33.14zm34.04.716a17.53 17.53 0 0 1-4.08-.477c-1.324-.318-2.357-.662-3.046-1.06-.424-.238-.715-.503-.821-.741a1.87 1.87 0 0 1-.16-.742v-1.35c0-.557.213-.822.61-.822a1.5 1.5 0 0 1 .477.08c.159.053.397.159.662.264.9.398 1.881.716 2.914.928 1.06.212 2.093.318 3.152.318 1.67 0 2.967-.292 3.868-.875.9-.582 1.377-1.43 1.377-2.516 0-.742-.238-1.351-.715-1.855-.477-.503-1.377-.953-2.675-1.377L64.9 29.51c-1.934-.61-3.365-1.51-4.239-2.702-.874-1.166-1.324-2.464-1.324-3.841 0-1.113.238-2.093.715-2.94a6.811 6.811 0 0 1 1.907-2.173c.795-.609 1.696-1.06 2.755-1.377 1.06-.318 2.172-.45 3.338-.45.583 0 1.192.026 1.775.105.61.08 1.165.186 1.722.292.53.132 1.033.265 1.51.424.476.159.847.318 1.112.477.371.211.636.423.795.662.159.212.238.503.238.874v1.245c0 .556-.212.848-.609.848-.212 0-.556-.106-1.007-.318-1.51-.689-3.205-1.033-5.086-1.033-1.51 0-2.702.238-3.523.741-.821.504-1.245 1.272-1.245 2.358 0 .742.265 1.377.795 1.88.53.504 1.51 1.007 2.914 1.458l3.761 1.192c1.908.61 3.285 1.457 4.106 2.543.821 1.086 1.219 2.331 1.219 3.708 0 1.14-.239 2.173-.689 3.073a7.124 7.124 0 0 1-1.934 2.331c-.82.663-1.801 1.14-2.94 1.484-1.192.37-2.437.556-3.788.556z"/><g fill="#F90"><path d="M72.185 53.801c-8.715 6.438-21.377 9.855-32.264 9.855-15.259 0-29.007-5.643-39.391-15.02-.821-.742-.08-1.748.9-1.166 11.232 6.517 25.087 10.464 39.418 10.464 9.669 0 20.291-2.013 30.066-6.146 1.457-.662 2.702.954 1.271 2.013z"/><path d="M75.815 49.669c-1.113-1.43-7.365-.689-10.2-.344-.847.106-.98-.636-.211-1.192 4.98-3.497 13.166-2.49 14.12-1.325.953 1.192-.266 9.378-4.928 13.298-.715.61-1.404.291-1.086-.503 1.06-2.623 3.417-8.53 2.305-9.934z"/></g></g></svg>