<svg xmlns="http://www.w3.org/2000/svg" width="80" height="80"><g fill="none"><path fill="#435363" d="M39.915 58.085c-9.915 0-17.971-8.057-17.971-17.972 0-9.916 8.056-17.972 17.971-17.972 8.17 0 15.1 5.493 17.268 12.986h6.958c-2.31-11.24-12.282-19.719-24.226-19.719-13.633 0-24.704 11.099-24.704 24.705 0 13.633 11.099 24.704 24.704 24.704 11.916 0 21.888-8.479 24.226-19.718h-6.986c-2.17 7.493-9.07 12.986-17.24 12.986"/><path fill="#435363" d="M27.803 52.225a17.073 17.073 0 0 0 12.112 5.014v-7.154a9.92 9.92 0 0 1-7.042-2.93l-5.07 5.07z"/><path fill="#F38B00" d="M22.76 40.113c0 2.45.536 4.788 1.465 6.901l6.564-2.873a10.11 10.11 0 0 1-.845-4.028c0-5.521 4.479-9.972 9.971-9.972v-7.155c-9.464 0-17.154 7.69-17.154 17.127"/><path fill="#435363" d="M46.113 24.14l-2.592 6.677a10.014 10.014 0 0 1 5.014 4.31h7.775A17.333 17.333 0 0 0 46.113 24.14"/><path fill="#F38B00" d="M43.521 49.408l2.592 6.677a17.091 17.091 0 0 0 10.169-10.986h-7.747a10.014 10.014 0 0 1-5.014 4.31"/><path fill="#F38B00" d="M39.915 73.24c-9.126 0-17.408-3.719-23.408-9.719l-4.789 4.789C18.93 75.52 28.901 80 39.915 80c20.339 0 37.127-15.24 39.578-34.901h-6.845c-2.394 15.915-16.17 28.14-32.733 28.14m0-66.253c7.409 0 14.282 2.45 19.803 6.591l4.057-5.436C57.099 3.183 48.845.225 39.915.225c-16.93 0-31.38 10.536-37.183 25.437l6.31 2.45C13.86 15.747 25.887 6.987 39.915 6.987"/><path fill="#435363" d="M72.648 35.127h6.845a39.473 39.473 0 0 0-5.747-16.141L68 22.563c2.338 3.775 3.972 8.029 4.648 12.564"/><path fill="#F38B00" d="M64.958 35.127h6.845C70.028 23.634 62.14 14.14 51.606 10.028l-2.451 6.282c8.028 3.127 14.084 10.197 15.803 18.817"/><path fill="#435363" d="M39.915 14.563v-6.76c-13.69 0-25.408 8.563-30.084 20.591l6.282 2.451c3.69-9.521 12.957-16.282 23.802-16.282"/><path fill="#F38B00" d="M14.366 40.113h-6.76c0 13.577 8.422 25.21 20.31 29.972l2.507-6.254c-9.409-3.775-16.057-12.986-16.057-23.718"/><path fill="#435363" d="M39.915 65.662v6.76c16.113 0 29.493-11.859 31.916-27.323h-6.845c-2.338 11.718-12.704 20.563-25.07 20.563M3.38 56.169A39.777 39.777 0 0 1 0 40.113h6.789c0 4.535.93 9.098 2.788 13.324L3.38 56.169z"/></g></svg>