<svg xmlns="http://www.w3.org/2000/svg" width="80" height="80"><path fill="#2496ED" d="M62.463 22.965l1.147.657c.21.123 4.895 2.866 5.721 8.493a20.92 20.92 0 0 1 3.366-.287c4.272 0 6.297 1.518 6.514 1.69l.789.618-.327.951a9.677 9.677 0 0 1-2.356 3.465c-1.55 1.522-4.362 3.338-8.933 3.338h-.737c-1.85 4.645-4.337 9.871-8.512 14.564a34.99 34.99 0 0 1-8.698 7.07 41.013 41.013 0 0 1-12.745 4.596c-3.22.595-6.49.89-9.766.88-7.25 0-13.648-1.369-17.585-3.763-3.514-2.13-6.214-5.613-8.03-10.34A37.411 37.411 0 0 1 .003 41.453a2.496 2.496 0 0 1 2.501-2.473h52.697c.645-.024 3.827-.294 5.812-1.392-1.644-2.579-2.109-5.595-1.344-8.807a15.209 15.209 0 0 1 2.04-4.734l.754-1.08zm-48.01 7.009c.341.002.616.277.614.615v6.246l-.008.1a.615.615 0 0 1-.609.512H7.39a.614.614 0 0 1-.617-.612v-6.25c0-.337.276-.611.617-.611zm9.732 0c.34.002.615.277.613.615v6.246l-.008.1a.615.615 0 0 1-.608.512H17.12a.618.618 0 0 1-.62-.612v-6.246c0-.34.278-.615.62-.615zm9.88 0c.34.002.615.277.613.615v6.246l-.008.1a.615.615 0 0 1-.609.512H27a.615.615 0 0 1-.616-.612v-6.25c0-.337.276-.611.616-.611zm9.758 0l.092.006c.3.044.529.3.529.61v6.245a.618.618 0 0 1-.62.612h-7.062a.614.614 0 0 1-.617-.612v-6.25c0-.337.276-.611.617-.611h7.061zm9.849 0l.092.006c.299.044.528.3.528.61v6.245a.618.618 0 0 1-.62.612H46.61a.614.614 0 0 1-.616-.612v-6.25c0-.337.276-.611.616-.611h7.062zm-29.49-8.985l.1.008c.293.047.516.3.516.604v6.245a.618.618 0 0 1-.616.616H17.12a.621.621 0 0 1-.62-.616v-6.245a.618.618 0 0 1 .62-.612h7.062zm9.88 0l.1.008c.292.047.516.3.516.604v6.245a.618.618 0 0 1-.617.616H27a.618.618 0 0 1-.616-.616v-6.245l.008-.1a.615.615 0 0 1 .608-.512h7.062zm9.761 0c.342 0 .619.273.62.612v6.245a.621.621 0 0 1-.62.616h-7.061a.618.618 0 0 1-.617-.616v-6.245l.008-.1a.615.615 0 0 1 .609-.512zm0-8.989c.342 0 .619.273.62.612v6.25a.618.618 0 0 1-.62.611h-7.061a.614.614 0 0 1-.617-.612v-6.249l.008-.1a.615.615 0 0 1 .609-.512z"/></svg>