<svg xmlns="http://www.w3.org/2000/svg" width="80" height="80"><g fill="none" fill-rule="evenodd"><path fill="#F6D2A2" stroke="#000" stroke-linecap="round" stroke-width=".5" d="M10.698 43.313c.115 2.373 2.486 1.275 3.56.534 1.019-.705 1.317-.12 1.406-1.51.059-.913.164-1.826.112-2.744-1.54-.14-3.217.228-4.48 1.146-.652.473-1.872 1.982-.598 2.574"/><path fill="#C6B198" stroke="#000" stroke-linecap="round" stroke-width=".5" d="M10.698 43.313c.345-.128.71-.22.945-.531"/><path fill="#6AD7E5" stroke="#000" stroke-linecap="round" stroke-width=".5" d="M16.177 15.044c-9.085-2.555-2.33-14.112 4.965-9.358l-4.965 9.358zm40.36-10.225c7.191-5.05 13.69 6.344 5.332 9.211L56.538 4.82z"/><path fill="#F6D2A2" stroke="#000" stroke-linecap="round" stroke-width=".5" d="M58.085 72.519c1.826 1.13 5.164 4.547 2.425 6.204-2.633 2.41-4.107-2.646-6.417-3.346.995-1.352 2.256-2.584 3.992-2.858z"/><path stroke="#000" stroke-linecap="round" stroke-width=".5" d="M60.51 78.723c-.407-.808-.543-1.75-1.221-2.402"/><path fill="#F6D2A2" stroke="#000" stroke-linecap="round" stroke-width=".5" d="M25.454 76.38c-2.143.332-3.35 2.266-5.137 3.248-1.684 1.004-2.328-.321-2.48-.59-.264-.12-.242.112-.65-.298-1.56-2.464 1.627-4.265 3.287-5.49 2.312-.467 3.761 1.538 4.98 3.13z"/><path stroke="#000" stroke-linecap="round" stroke-width=".5" d="M17.837 79.038c.082-.94.826-1.568 1.181-2.362"/><path fill="#000" fill-rule="nonzero" d="M16.556 11.852c-1.199-.634-2.078-1.495-1.345-2.881.679-1.284 1.94-1.144 3.138-.51l-1.793 3.39zm43.42-1.205c1.199-.634 2.078-1.495 1.345-2.882-.679-1.283-1.94-1.144-3.139-.51l1.794 3.392z"/><path fill="#F6D2A2" stroke="#000" stroke-linecap="round" stroke-width=".5" d="M68.226 43.012c-.115 2.373-2.486 1.275-3.56.533-1.019-.704-1.317-.119-1.406-1.509-.059-.913-.164-1.827-.112-2.744 1.541-.14 3.217.227 4.48 1.145.652.473 1.872 1.983.598 2.575"/><path fill="#C6B198" stroke="#000" stroke-linecap="round" stroke-width=".5" d="M68.226 43.012c-.345-.128-.71-.22-.945-.531"/><path fill="#6AD7E5" stroke="#000" stroke-linecap="round" stroke-width=".5" d="M38.552.019c9.094 0 17.62 1.3 22.064 10.038 3.99 9.794 2.57 20.355 3.179 30.705.522 8.888 1.68 19.156-2.442 27.392-4.338 8.665-15.176 10.845-24.106 10.525-7.014-.25-15.487-2.539-19.445-8.947-4.644-7.518-2.446-18.697-2.108-27.062.4-9.909-2.684-19.848.571-29.544C19.642 3.067 28.75.794 38.552.019"/><path fill="#FFF" stroke="#000" stroke-linecap="round" stroke-width=".5" d="M40.157 12.227c1.633 9.492 17.149 6.983 14.92-2.59-1.998-8.585-15.462-6.209-14.92 2.59m-18.54 1.536c2.116 8.263 15.346 6.148 14.847-2.142-.597-9.927-16.871-8.012-14.848 2.142m20.413 9.855c.007 1.234.28 2.62.047 3.932-.315.595-.933.658-1.466.899a2.157 2.157 0 0 1-1.651-1.288c-.19-1.499.07-2.95.118-4.449l2.952.906z"/><g transform="translate(22.957 9.944)"><ellipse cx="2.309" cy="2.471" fill="#000" fill-rule="nonzero" rx="2.234" ry="2.42"/><ellipse cx="3.325" cy="3.018" fill="#FFF" rx="1" ry="1"/></g><g transform="translate(41.638 9.34)"><ellipse cx="2.346" cy="2.471" fill="#000" fill-rule="nonzero" rx="2.197" ry="2.42"/><ellipse cx="3.345" cy="3.018" fill="#FFF" rx="1" ry="1"/></g><path fill="#FFF" stroke="#000" stroke-linecap="round" stroke-width=".5" d="M35.645 23.483c-.975 2.363.543 7.086 3.188 3.602-.189-1.498.07-2.95.118-4.448l-3.306.846z"/><path fill="#F6D2A2" stroke="#231F20" stroke-linecap="round" stroke-width=".5" d="M35.979 18.933c-1.817.155-3.302 2.315-2.357 4.024 1.25 2.264 4.043-.2 5.782.03 2.001.042 3.641 2.117 5.249.376 1.788-1.937-.77-3.823-2.769-4.666l-5.905.236z"/><path fill="#000" fill-rule="nonzero" d="M35.75 18.839c-.134-3.148 5.866-3.541 6.575-.907.707 2.629-6.28 3.24-6.575.907-.236-1.863 0 0 0 0z"/></g></svg>