<svg xmlns="http://www.w3.org/2000/svg" width="80" height="80" viewBox="0 0 80 80">
  <defs>
    <radialGradient id="heroku-icon-a" cx="50%" cy="50%" r="74.309%" fx="50%" fy="50%" gradientTransform="matrix(1 0 0 .9 0 .05)">
      <stop offset="0%" stop-color="#844DB8"/>
      <stop offset="100%" stop-color="#5B16A3"/>
    </radialGradient>
    <linearGradient id="heroku-icon-b" x1="10.063%" x2="95.86%" y1="94.375%" y2="-.956%">
      <stop offset="0%" stop-color="#7673C0" stop-opacity=".5"/>
      <stop offset="100%" stop-color="#7673C0" stop-opacity="0"/>
    </linearGradient>
  </defs>
  <g fill="none" transform="translate(4)">
    <path fill="url(#heroku-icon-a)" d="M64.8,0 L7.2,0 C3.224,0 0,3.224 0,7.2 L0,72.8 C0,76.776 3.224,80 7.2,80 L64.8,80 C68.776,80 72,76.776 72,72.8 L72,7.2 C72,3.224 68.776,0 64.8,0 Z"/>
    <path fill="url(#heroku-icon-b)" d="M64.8,0 L7.2,0 C3.224,0 0,3.224 0,7.2 L0,72.8 C0,76.776 3.224,80 7.2,80 L64.8,80 C68.776,80 72,76.776 72,72.8 L72,7.2 C72,3.224 68.776,0 64.8,0 Z"/>
    <g fill="#FFF" transform="translate(18 12)">
      <polygon points="0 56 9 48 0 40"/>
      <path d="M32.517 23.575C30.905 21.944 27.945 20 23 20 17.577 20 11.994 21.411 8 22.711L8 0 0 0 0 34.692 5.651 32.132C5.742 32.091 14.866 28 23 28 27.062 28 27.961 30.243 28 32.11L28 56 36.0002258 56 36.0002258 32C36.005 31.488 35.958 27.055 32.517 23.575zM22 13L30 13C33.618 8.9 35.46 4.544 36 0L28 0C27.118 4.534 25.144 8.875 22 13z"/>
    </g>
  </g>
</svg>
