<svg xmlns="http://www.w3.org/2000/svg">

    <!-- facebook -->
    <symbol id="facebook" viewBox="0 0 16 16">
        <path d="M15.117 0H.883C.395 0 0 .395 0 .883v14.234c0 .488.395.883.883.883h7.663V9.804H6.46V7.39h2.086V5.607c0-2.066 1.262-3.19 3.106-3.19.883 0 1.642.064 1.863.094v2.16h-1.28c-1 0-1.195.48-1.195 1.18v1.54h2.39l-.31 2.42h-2.08V16h4.077c.488 0 .883-.395.883-.883V.883C16 .395 15.605 0 15.117 0" />
    </symbol>

    <!-- github -->
    <symbol id="github" viewBox="0 0 16 16">
        <path d="M8 0C3.58 0 0 3.582 0 8c0 3.535 2.292 6.533 5.47 7.59.4.075.547-.172.547-.385 0-.19-.007-.693-.01-1.36-2.226.483-2.695-1.073-2.695-1.073-.364-.924-.89-1.17-.89-1.17-.725-.496.056-.486.056-.486.803.056 1.225.824 1.225.824.714 1.223 1.873.87 2.33.665.072-.517.278-.87.507-1.07-1.777-.2-3.644-.888-3.644-3.953 0-.873.31-1.587.823-2.147-.09-.202-.36-1.015.07-2.117 0 0 .67-.215 2.2.82.64-.178 1.32-.266 2-.27.68.004 1.36.092 2 .27 1.52-1.035 2.19-.82 2.19-.82.43 1.102.16 1.915.08 2.117.51.56.82 1.274.82 2.147 0 3.073-1.87 3.75-3.65 3.947.28.24.54.73.54 1.48 0 1.07-.01 1.93-.01 2.19 0 .21.14.46.55.38C13.71 14.53 16 11.53 16 8c0-4.418-3.582-8-8-8"/>
    </symbol>

    <!-- linkedin -->
    <symbol id="linkedin" viewBox="0 0 16 16">
        <path d="M13.632 13.635h-2.37V9.922c0-.886-.018-2.025-1.234-2.025-1.235 0-1.424.964-1.424 1.96v3.778h-2.37V6H8.51v1.04h.03c.318-.6 1.092-1.233 2.247-1.233 2.4 0 2.845 1.58 2.845 3.637v4.188zM3.558 4.955c-.762 0-1.376-.617-1.376-1.377 0-.758.614-1.375 1.376-1.375.76 0 1.376.617 1.376 1.375 0 .76-.617 1.377-1.376 1.377zm1.188 8.68H2.37V6h2.376v7.635zM14.816 0H1.18C.528 0 0 .516 0 1.153v13.694C0 15.484.528 16 1.18 16h13.635c.652 0 1.185-.516 1.185-1.153V1.153C16 .516 15.467 0 14.815 0z" />
    </symbol>

    <!-- rss -->
    <symbol id="rss" viewBox="0 0 16 16">
        <path d="M12.8 16C12.8 8.978 7.022 3.2 0 3.2V0c8.777 0 16 7.223 16 16h-3.2zM2.194 11.61c1.21 0 2.195.985 2.195 2.196 0 1.21-.99 2.194-2.2 2.194C.98 16 0 15.017 0 13.806c0-1.21.983-2.195 2.194-2.195zM10.606 16h-3.11c0-4.113-3.383-7.497-7.496-7.497v-3.11c5.818 0 10.606 4.79 10.606 10.607z"/>
    </symbol>

    <!-- twitter -->
    <symbol id="twitter" viewBox="0 0 16 13">
        <path d="M16 1.54a6.57 6.57 0 0 1-1.885.517A3.297 3.297 0 0 0 15.559.241a6.568 6.568 0 0 1-2.086.796A3.286 3.286 0 0 0 7.88 4.03 9.323 9.323 0 0 1 1.115.602 3.287 3.287 0 0 0 2.13 4.984a3.277 3.277 0 0 1-1.486-.41C.61 6.093 1.7 7.515 3.28 7.833a3.29 3.29 0 0 1-1.483.055 3.287 3.287 0 0 0 3.067 2.279A6.606 6.606 0 0 1 0 11.529a9.284 9.284 0 0 0 5.03 1.475c6.097 0 9.54-5.148 9.331-9.765A6.618 6.618 0 0 0 16 1.54z" />
    </symbol>

    <!-- code -->
    <symbol id="code" viewBox="0 0 16 16">
        <path d="M8.46153846,4 L14,7.15020946 L14,8.85058847 L8.46153846,12 L8.46153846,10.2206264 L12.3661538,8 L8.46153846,5.77378815 L8.46153846,4 Z M2,4 L7.53846154,7.15020946 L7.53846154,8.85058847 L2,12 L2,10.2206264 L5.90461538,8 L2,5.77378815 L2,4 Z" />
    </symbol>

    <!-- license -->
    <symbol id="license" viewBox="0 0 16 16">
        <path d="M3.96825397,5.1875 L3.96825397,3.5 L11.968254,3.5 L11.968254,5.1875 L8.88888889,5.1875 L8.88888889,12.5 L7.11111111,12.5 L7.11111111,5.1875 L3.96825397,5.1875 Z M2.85714286,6.875 L5.71428571,10.25 L0,10.25 L2.85714286,6.875 Z M13.1428571,6.875 L16,10.25 L10.2857143,10.25 L13.1428571,6.875 Z" />
    </symbol>

    <!-- arrow-right -->
    <symbol id="arrow-right" viewBox="0 0 16 16">
        <path d="M7.80075,3.28786949 C7.44459107,3.63568237 7.41097217,4.18549466 7.70266071,4.57138952 L7.79839868,4.68037011 L10.177,7.01883867 L2.98975207,7.01883867 C2.44312709,7.01883867 2,7.45811956 2,8 C2,8.54188044 2.44312709,8.98116133 2.98975207,8.98116133 L10.177,8.98116133 L7.79839868,11.3196299 C7.44341635,11.6686228 7.41165441,12.2185436 7.70464452,12.6034683 L7.80075,12.7121305 C8.19504279,13.0971836 8.82855128,13.0957752 9.22109786,12.7089727 L14,8 L9.22109786,3.29102728 C8.82855128,2.90422481 8.19504279,2.90281636 7.80075,3.28786949 Z" />
    </symbol>

    <!-- arrow-external -->
    <symbol id="arrow-external" viewBox="0 0 16 16">
        <path d="M4.52712953,4.80891159 C4.52122798,5.30669483 4.88623183,5.71924298 5.36535565,5.78585691 L5.51011353,5.79522085 L8.84558563,5.76684271 L3.76343388,10.8489945 C3.37691166,11.2355167 3.37419198,11.8594734 3.75735931,12.2426407 C4.14052665,12.625808 4.76448332,12.6230883 5.15100554,12.2365661 L10.2331573,7.15441437 L10.2047792,10.4898865 C10.200544,10.9876721 10.5669376,11.3989839 11.0462958,11.4639915 L11.1910884,11.4728705 C11.7421692,11.466337 12.1891314,11.017383 12.1931931,10.4663 L12.2426407,3.75735931 L5.53370003,3.80680687 C4.98261704,3.81086858 4.53366296,4.2578308 4.52712953,4.80891159 Z" />
    </symbol>

    <!-- arrow-down -->
    <symbol id="arrow-down" viewBox="0 0 16 16">
        <path d="M12.7121305,7.80075 C12.3643176,7.44459107 11.8145053,7.41097217 11.4286105,7.70266071 L11.3196299,7.79839868 L8.98116133,10.177 L8.98116133,2.98975207 C8.98116133,2.44312709 8.54188044,2 8,2 C7.45811956,2 7.01883867,2.44312709 7.01883867,2.98975207 L7.01883867,10.177 L4.68037011,7.79839868 C4.33137718,7.44341635 3.7814564,7.41165441 3.39653173,7.70464452 L3.28786949,7.80075 C2.90281636,8.19504279 2.90422481,8.82855128 3.29102728,9.22109786 L8,14 L12.7089727,9.22109786 C13.0957752,8.82855128 13.0971836,8.19504279 12.7121305,7.80075 Z" />
    </symbol>

</svg>
