<svg xmlns="http://www.w3.org/2000/svg" width="80" height="80" viewBox="0 0 80 80">
  <g fill="none" transform="translate(10)">
    <path fill="#5382A1" d="M59.0155468,72.375868 C58.4925158,79.180652 36.408554,80.6119919 22.0273539,79.6914143 C12.5755594,79.085301 10.7374175,77.563776 10.7374175,77.5639912 C19.7165469,79.0444058 34.8556039,79.3141003 47.1302592,77.0041542 C58.0101651,74.9555087 59.0155468,72.375868 59.0155468,72.375868 Z M4.12225917,74.3670449 C-7.56522375,72.4725103 9.74753295,65.8571366 12.9162829,68.0893815 C12.9162829,68.0893815 11.9145602,68.0185676 10.161653,68.39868 C8.48085087,68.7596358 3.1375403,70.4798268 5.98687547,71.7193887 C13.9132704,75.1694562 42.4464412,74.3440143 51.4699098,71.6104777 C56.0427271,70.2233048 54.1119758,68.4449863 53.9655108,68.3174884 L53.9585092,68.3110744 L54.1947041,68.4232074 C61.6236006,72.1500846 36.1992754,79.3372843 5.07674091,74.5183306 Z M21.2593808,64.2185214 C27.5874102,64.9404335 30.8215928,64.8369034 37.7951244,63.5170573 C37.7951244,63.5170573 39.6285309,64.6666492 42.1890153,65.6623454 C26.7125279,72.2953084 7.20340865,65.4146513 18.7288276,61.9473652 L19.0876183,61.8433582 C19.0876183,61.8433582 16.0359584,63.6180044 21.2593808,64.2185214 Z M17.1773713,53.1003459 C17.1773713,53.1003459 13.7546392,55.6339253 18.9819359,56.174606 C25.741735,56.8719806 31.080095,56.929019 40.3175112,55.1502832 L40.3383206,55.1708402 C40.5108072,55.3389602 41.7439885,56.4980624 43.6042123,57.1539438 C24.7032062,62.6808534 3.65088555,57.589803 17.1773713,53.1003459 Z M46.2899658,58.9871354 C46.2899658,58.9873505 46.5217783,58.7800751 46.5910853,58.5947545 C61.5734483,50.809341 54.6461931,43.3276301 49.8110622,44.3355947 C48.6259556,44.5822587 48.0975436,44.7959912 48.0975436,44.7959912 C48.0975436,44.7959912 48.5374925,44.1067956 49.3777859,43.8084742 C58.9432266,40.4455785 66.2996682,53.7269071 46.2899658,58.9871354 Z M20.5551185,44.041578 C20.5551185,44.041578 6.04133096,47.4888474 15.4154241,48.7406782 C19.3734558,49.2705968 27.2636906,49.1507087 34.6132449,48.5349096 C40.6197071,48.0282368 46.6509216,46.9509651 46.6509216,46.9509651 C46.6509216,46.9509651 44.532969,47.8579827 43.0006818,48.9042599 C28.2621847,52.7805006 -0.209858119,50.9772275 7.98687713,47.0123082 C14.9188675,43.6614659 20.5551185,44.041578 20.5551185,44.041578 Z"/>
    <path fill="#E76F00" d="M47.5622439,16.3962686 C30.1457422,26.4972243 33.3629209,29.4268435 37.5581461,35.3231034 C42.0499709,41.6457517 32.2692911,46.6948305 32.2692911,46.6948305 C32.2692911,46.6948305 37.133264,42.7040823 33.2813452,38.269296 C20.6157987,23.6754396 45.95831,16.8133332 47.4902597,16.4147412 Z M37.5581461,0.0858803993 C37.5581461,0.0858803993 45.8556132,8.38614566 29.6883591,21.1496088 C16.7238625,31.3881022 26.7320499,37.2258169 29.682978,43.895646 C22.1153867,37.0678314 16.5617875,31.0572798 20.2875763,25.4632155 C25.7561561,17.2516288 40.905975,13.2703512 37.5581461,0.0858803993 Z"/>
  </g>
</svg>
