<svg xmlns="http://www.w3.org/2000/svg" width="80" height="80" viewBox="0 0 80 80">
  <g fill="none" stroke="#FFF" stroke-width=".5" transform="translate(0 1)">
    <path fill="#326CE5" d="M39.7147695,0.120888596 C39.0097046,0.156581492 38.3188907,0.332257343 37.6828546,0.637610088 L9.9559042,13.9512066 C8.50218005,14.6488884 7.44629212,15.9683748 7.08710988,17.5361846 L0.246684346,47.4418864 C-0.0724374751,48.8339568 0.187224516,50.2954959 0.966542502,51.4936956 C1.06007476,51.6386794 1.16066783,51.7790153 1.26796094,51.9142 L20.4594503,75.8936408 C21.4657436,77.1505706 22.9914759,77.8821277 24.6048404,77.8821277 L55.3814361,77.8750004 C56.9941972,77.8761816 58.5198219,77.1456718 59.5268262,75.8900772 L78.7112234,51.9070728 C79.718055,50.649513 80.0952829,49.003295 79.736046,47.4347592 L72.8849822,17.5290575 C72.5258,15.9612476 71.469912,14.6417612 70.0161879,13.9440794 L42.2856914,0.637610088 C41.4856537,0.253500556 40.6016358,0.0758245768 39.7147695,0.120888596 Z"/>
    <path fill="#FFF" d="M39.989511,10.2981918 C39.0729765,10.2981918 38.3298276,11.1279008 38.3299365,12.1512619 C38.3299377,12.166968 38.3331365,12.1819761 38.333477,12.1975887 C38.3321266,12.3366385 38.3254429,12.5041561 38.3299365,12.6252203 C38.3517941,13.2154659 38.4798259,13.6672147 38.5568869,14.2110207 C38.6964931,15.3749381 38.8134736,16.3397547 38.7412841,17.2365141 C38.6710781,17.5746738 38.4232268,17.8839381 38.202277,18.0989045 L38.1632699,18.8044966 C37.1673187,18.8874195 36.1647053,19.0392652 35.1632699,19.2677641 C30.8540943,20.2509952 27.14397,22.481623 24.3192982,25.4933672 C24.1360109,25.3677085 23.8153516,25.1365354 23.7200018,25.0657356 C23.4236988,25.1059467 23.1242333,25.1978213 22.7341862,24.9695185 C21.9915014,24.4671221 21.3150804,23.7736405 20.4965975,22.9382685 C20.1215643,22.5386679 19.8499797,22.1581533 19.404399,21.7729725 C19.3032109,21.6854996 19.148787,21.5671904 19.0356046,21.4771939 C18.6872495,21.1980851 18.2763763,21.052525 17.8795763,21.0388716 C17.3694043,21.021317 16.8782781,21.2217668 16.5568812,21.626865 C15.9855099,22.3470399 16.1684421,23.447783 16.9646826,24.0857466 C16.9727621,24.0922124 16.9813658,24.097239 16.9895053,24.1035646 C17.0989204,24.1926967 17.2329051,24.3069039 17.333477,24.3815251 C17.8063133,24.7323597 18.2382373,24.9119536 18.7093635,25.1904615 C19.7019309,25.8064574 20.5247814,26.3172262 21.1774486,26.9330602 C21.4323161,27.2060796 21.4768619,27.6871651 21.5107819,27.8952312 L22.0426968,28.3727532 C19.1952165,32.6791377 17.8773794,37.9983933 18.6561777,43.4182575 L17.9611422,43.6213825 C17.7779592,43.8591012 17.5191099,44.2331511 17.2483706,44.3447926 C16.3944551,44.6150797 15.4334214,44.7143336 14.2731933,44.8365689 C13.7284773,44.8820861 13.2584778,44.8549229 12.6809947,44.9648584 C12.5538934,44.9890544 12.3767995,45.0354199 12.2377323,45.0682027 C12.2328982,45.069229 12.2283819,45.0706659 12.2235479,45.0717606 C12.2159678,45.0735282 12.2060092,45.0772229 12.1987252,45.0788878 C11.2205533,45.3163989 10.5921731,46.2199229 10.7944699,47.1101378 C10.9968143,48.0005614 11.952273,48.5420502 12.9363138,48.3288878 C12.9434174,48.3272571 12.9537323,48.3269834 12.9611365,48.3253299 C12.9722458,48.3227755 12.9820262,48.3173589 12.9930514,48.3146448 C13.1302259,48.2843845 13.3021317,48.2507168 13.4221295,48.2184277 C13.9898843,48.0656629 14.401073,47.8412042 14.9114912,47.6446887 C16.0095836,47.2488991 16.9190634,46.9182601 17.8051082,46.7894255 C18.1751712,46.7602987 18.5650639,47.0188824 18.7590089,47.1279672 L19.4824131,47.0032413 C21.1471144,52.1898787 24.635793,56.3820594 29.0533351,59.0125615 L28.7519167,59.7395352 C28.8605601,60.0218199 28.9803887,60.4037554 28.8994594,60.6825278 C28.5773397,61.5219629 28.0255904,62.4079893 27.3973068,63.3957852 C27.0930968,63.8521445 26.7817573,64.2063021 26.5072358,64.7285703 C26.4415451,64.8535402 26.3578821,65.0455103 26.2944699,65.1775834 C25.8679348,66.0946946 26.1808086,67.1509834 27.0001436,67.5473751 C27.8246259,67.9462561 28.8480268,67.5255556 29.2909238,66.6065856 C29.2916046,66.6052856 29.2938401,66.6043277 29.2944642,66.6030277 C29.2949181,66.6020014 29.2940103,66.6004619 29.2944642,66.5994698 C29.3575485,66.469179 29.4469215,66.2979189 29.500138,66.1754018 C29.7352733,65.634075 29.8135121,65.1701757 29.9788614,64.6466189 C30.4179672,63.5381819 30.6592211,62.3751506 31.2636931,61.6504485 C31.4292171,61.4520012 31.6990758,61.375681 31.9788614,61.3004018 L32.3547479,60.6161913 C36.2058957,62.1017036 40.5166384,62.5003315 44.822833,61.5177812 C45.8051842,61.2936373 46.7535496,61.0035457 47.6703507,60.6553909 C47.7759938,60.8437004 47.9723229,61.20569 48.0249607,61.2968382 C48.3092829,61.3897974 48.6196205,61.4378016 48.8724784,61.8135597 C49.3247212,62.5900224 49.633999,63.5085955 50.0107763,64.6181102 C50.1761527,65.1416578 50.2578821,65.6055776 50.4930458,66.1468931 C50.5466446,66.2702733 50.6355706,66.4439385 50.6987195,66.5745246 C51.1406849,67.4964801 52.1673289,67.9186186 52.9930458,67.5188777 C53.8122798,67.1222751 54.1254985,66.0660821 53.6987195,65.1490861 C53.6352994,65.0170175 53.5481039,64.8250394 53.4824075,64.7000729 C53.2078588,64.1778196 52.8965692,63.8271936 52.5923365,63.3708514 C51.9640007,62.3830886 51.4428693,61.5625172 51.1207053,60.7230992 C50.9859978,60.290157 51.1434321,60.0209008 51.2483649,59.7395466 C51.1855246,59.6671605 51.0510531,59.2583082 50.9717692,59.0660268 C55.5626798,56.3419384 58.9489107,51.9934236 60.5391451,46.9711804 C60.7538855,47.0050967 61.1271212,47.0714582 61.2483649,47.0959062 C61.4979581,46.9304755 61.7274503,46.7146276 62.1774429,46.7502374 C63.0634934,46.8790252 63.972947,47.209768 65.0710599,47.6055005 C65.5814883,47.8019898 65.9926599,48.030068 66.5604217,48.1828032 C66.6804205,48.2150854 66.8523229,48.2452032 66.9894997,48.2754567 C67.0005295,48.2781707 67.0102997,48.2835988 67.0214146,48.2861418 C67.0288245,48.2878067 67.0391337,48.2880689 67.0462373,48.2896996 C68.0303348,48.5025975 68.9859638,47.9614257 69.1880812,47.0709496 C69.390151,46.1806823 68.7620614,45.2769485 67.7838259,45.0396996 C67.641536,45.0071848 67.4397408,44.9519633 67.3015564,44.9256646 C66.7240676,44.8157598 66.2540761,44.8428637 65.7093578,44.7973751 C64.5491241,44.6752002 63.5881096,44.5758403 62.7341805,44.3055988 C62.3860092,44.1698651 62.138319,43.7535275 62.0178628,43.5821887 L61.34765,43.3861909 C61.6951405,40.8598096 61.6014429,38.2305118 61.0001323,35.5997325 C60.3932228,32.9444586 59.3206577,30.5159525 57.8902032,28.3763225 C58.0621238,28.2192631 58.3867921,27.9303415 58.4788557,27.8453466 C58.5057675,27.5460991 58.4826458,27.2323475 58.7909124,26.9009935 C59.4435468,26.2851254 60.2664631,25.7744432 61.2589975,25.1583948 C61.730109,24.8798618 62.165612,24.7003182 62.6384302,24.3494584 C62.7453521,24.2701174 62.891355,24.1444701 63.0036784,24.0536799 C63.7997499,23.4155019 63.983035,22.314825 63.4114798,21.5947983 C62.8399246,20.8747717 61.732374,20.8069493 60.9363025,21.4451273 C60.8229907,21.5353119 60.6692353,21.6529585 60.5675082,21.7409058 C60.1219479,22.1261118 59.8467763,22.5065818 59.4717635,22.9062018 C58.6533249,23.7416172 57.9768336,24.4385791 57.2341748,24.9410154 C56.9123581,25.1292942 56.4409879,25.0641482 56.227077,25.0514869 L55.5958713,25.5040637 C51.9965748,21.7111917 47.0960517,19.2862481 41.8192982,18.8151874 C41.8045397,18.5929649 41.7852046,18.191282 41.7802912,18.0703957 C41.5642673,17.8626637 41.3033073,17.6853152 41.237738,17.2365141 C41.1655485,16.3397547 41.286075,15.3749381 41.4256812,14.2110207 C41.5027422,13.6672147 41.630774,13.2154659 41.6526316,12.6252203 C41.6576018,12.4910432 41.6496245,12.2963419 41.6490912,12.1512619 C41.6489822,11.1279008 40.9060512,10.2981918 39.9895167,10.2981918 L39.989511,10.2981918 Z M37.9114968,23.234047 L37.418589,31.9826764 L37.383128,32.0004944 C37.3500682,32.7831571 36.70909,33.408115 35.9221351,33.408115 C35.5997737,33.408115 35.302227,33.3040819 35.060433,33.1265909 L35.0462486,33.1337181 L27.9079507,28.0484659 C30.1018401,25.8805277 32.9079973,24.2784214 36.1419933,23.5405163 C36.7327439,23.4057234 37.3232313,23.3057067 37.9114968,23.234047 Z M42.0710713,23.234047 C45.8467842,23.7007151 49.3385902,25.4188247 52.0143337,28.0520295 L44.9221351,33.1052093 L44.8973124,33.0945242 C44.2678146,33.556559 43.3808948,33.4419196 42.8902202,32.8236909 C42.6892194,32.5704235 42.5837556,32.2726289 42.5710713,31.9719913 L42.5639791,31.9684334 L42.0710713,23.234047 Z M25.3192982,31.3162839 L31.8370287,37.1748365 L31.8299365,37.2104725 C32.4182338,37.7244252 32.5049868,38.6162902 32.0143337,39.2345953 C31.8133465,39.4878729 31.5443104,39.6577498 31.2554685,39.7370624 L31.2483763,39.7655711 L22.8937663,42.1888168 C22.4685431,38.2813851 23.3849493,34.4830508 25.3192982,31.3162839 Z M54.6136245,31.3198418 C55.582033,32.8972389 56.3153607,34.6590332 56.7519224,36.5690194 C57.1832483,38.4561039 57.2914957,40.3398142 57.1136245,42.1603023 L48.7164614,39.7299295 L48.7093692,39.6942935 C47.9574259,39.4877714 47.4953062,38.7191088 47.6703621,37.9481312 C47.7420818,37.6322974 47.9089119,37.3651109 48.1349011,37.1677036 L48.1313607,37.1498856 L54.6136302,31.3198418 L54.6136245,31.3198418 Z M38.6526316,37.6274075 L41.3228443,37.6274075 L42.9824188,39.7121115 L42.3866741,42.3135369 L39.989511,43.4717058 L37.5852557,42.3099733 L36.989511,39.7085479 L38.6526316,37.6274075 Z M47.2129153,44.7617277 C47.326387,44.7559689 47.4393641,44.7662435 47.5497947,44.7866729 L47.5639791,44.7688549 L56.2058231,46.2370567 C54.9410855,49.8078488 52.5209652,52.9012877 49.2873834,54.9714317 L45.9327734,46.8286137 L45.943406,46.8143593 C45.6352517,46.094799 45.943633,45.2509884 46.6526259,44.9078352 C46.8341465,44.8199814 47.0237907,44.771334 47.2129096,44.7617277 L47.2129153,44.7617277 Z M32.6987309,44.7973637 C33.3582191,44.8066575 33.9497516,45.2666466 34.1029862,45.9412782 C34.1747241,46.2571075 34.1398089,46.5700391 34.0214259,46.8464317 L34.0462486,46.878504 L30.7270997,54.9393593 C27.6238758,52.9382032 25.152147,49.9418822 23.8299365,46.2655711 L32.3973124,44.8044966 L32.4114968,44.8223146 C32.5073278,44.8045924 32.6045181,44.7960409 32.6987309,44.7973694 L32.6987309,44.7973637 Z M39.9363195,48.3288935 C40.1660443,48.3204093 40.3991451,48.3677772 40.6207167,48.475001 C40.9111575,48.6155526 41.1355229,48.836856 41.2767451,49.1021939 L41.3086599,49.1021939 L45.5320642,56.7710536 C44.9839462,56.9557026 44.4204512,57.1135101 43.8441209,57.2450119 C40.6141034,57.9820093 37.3943485,57.7587024 34.4788727,56.7603628 L38.6916387,49.1057575 L38.6987309,49.1057575 C38.9515161,48.6308687 39.430926,48.3475531 39.9363195,48.3288935 Z"/>
  </g>
</svg>
