<svg xmlns="http://www.w3.org/2000/svg" width="80" height="80" viewBox="0 0 80 80">
  <defs>
    <linearGradient id="python-logo-a" x1=".959%" x2="74.051%" y1="0%" y2="64.11%">
      <stop offset="0%" stop-color="#5A9FD4"/>
      <stop offset="100%" stop-color="#306998"/>
    </linearGradient>
    <linearGradient id="python-logo-b" x1="50%" x2="24.242%" y1="82.276%" y2="44.914%">
      <stop offset="0%" stop-color="#FFD43B"/>
      <stop offset="100%" stop-color="#FFE873"/>
    </linearGradient>
  </defs>
  <g fill="none">
    <path fill="url(#python-logo-a)" d="M39.2992255,0.281750726 C36.0541614,0.296829168 32.9551979,0.573586265 30.228429,1.05608701 C22.1957097,2.47520474 20.7372793,5.44553982 20.7372786,10.9233437 L20.7372786,18.157857 L39.7195795,18.157857 L39.7195795,20.5693614 L20.7372786,20.5693614 L13.6133848,20.5693614 C8.09659965,20.5693614 3.26594464,23.8852673 1.75497756,30.1932552 C0.0120961416,37.4236736 -0.0652101239,41.9355724 1.75497756,49.4852906 C3.10430733,55.1050088 6.32668956,59.1091844 11.8434733,59.1091844 L18.3700219,59.1091844 L18.3700219,50.4366181 C18.3700219,44.1712007 23.7910088,38.6445841 30.228429,38.6445827 L49.188606,38.6445827 C54.4664474,38.6445827 58.6797565,34.2989798 58.6797565,28.998565 L58.6797565,10.9233437 C58.6797565,5.77903292 54.3399476,1.91465168 49.188606,1.05608701 C45.9277303,0.513272637 42.5442896,0.266672283 39.2992255,0.281750726 Z M29.0337388,6.10033487 C30.99448,6.10033487 32.5956857,7.72769487 32.5956857,9.72865345 C32.5956857,11.7225196 30.99448,13.3348481 29.0337388,13.3348481 C27.0659681,13.3348481 25.4717919,11.7225189 25.4717919,9.72865345 C25.4717919,7.72769558 27.0659681,6.10033487 29.0337388,6.10033487 Z"/>
    <path fill="url(#python-logo-b)" d="M61.0470131,20.5693614 L61.0470131,28.998565 C61.0470131,35.5336127 55.5065565,41.0339625 49.188606,41.0339632 L30.228429,41.0339632 C25.0349189,41.0339632 20.7372786,45.4789069 20.7372786,50.6799809 L20.7372786,68.7552 C20.7372786,73.8995115 25.2106152,76.9253381 30.228429,78.4012177 C36.2371589,80.1680212 41.9992163,80.4873274 49.188606,78.4012177 C53.9674768,77.0175788 58.6797586,74.2329982 58.6797565,68.7552 L58.6797565,61.5206888 L39.7195795,61.5206888 L39.7195795,59.1091844 L58.6797565,59.1091844 L68.1709097,59.1091844 C73.6876956,59.1091844 75.7434761,55.261108 77.6620531,49.4852906 C79.6438796,43.5391766 79.559554,37.8210244 77.6620531,30.1932552 C76.298669,24.7012616 73.6947115,20.5693614 68.1709097,20.5693614 L61.0470131,20.5693614 Z M50.3832963,66.3436977 C52.3510683,66.3436977 53.9452432,67.9560283 53.9452432,69.9498903 C53.9452432,71.950846 52.3510662,73.5782088 50.3832963,73.5782088 C48.4225529,73.5782088 46.8213494,71.950846 46.8213494,69.9498903 C46.8213494,67.9560283 48.4225508,66.3436977 50.3832963,66.3436977 Z"/>
  </g>
</svg>
