<svg xmlns="http://www.w3.org/2000/svg" width="80" height="80"><path fill="#61DAFB" d="M56.258 4l-.001.016.32.006c1.112.041 2.14.288 3.048.76l.269.147c4.598 2.642 5.642 10.893 3.294 21.264C73.363 29.308 80 34.33 80 39.63c0 5.283-6.604 10.306-16.714 13.42 2.364 10.339 1.337 18.573-3.245 21.215-1.076.62-2.316.913-3.686.913-4.484 0-10.354-3.163-16.29-8.675-5.935 5.544-11.806 8.74-16.29 8.74-1.37 0-2.61-.293-3.669-.913-4.598-2.641-5.642-10.893-3.294-21.264C6.637 49.952 0 44.93 0 39.63c0-5.283 6.604-10.29 16.747-13.42C14.382 15.87 15.41 7.636 19.992 4.995c1.076-.62 2.315-.913 3.685-.913v-.017c4.484 0 10.355 3.164 16.29 8.675C45.903 7.196 51.773 4 56.257 4zM20.302 54.045c-.36 1.647-.653 3.261-.832 4.794-.75 6.23.212 11.072 2.43 12.344.489.277 1.109.424 1.842.44 3.392 0 8.382-2.707 13.698-7.647-2.3-2.398-4.582-5.137-6.784-8.154-3.669-.391-7.158-.994-10.354-1.777zm39.429-.033c-3.196.8-6.686 1.403-10.371 1.794a77.018 77.018 0 0 1-6.735 8.137c5.316 4.908 10.322 7.599 13.698 7.599.75 0 1.386-.13 1.875-.424 2.202-1.288 3.147-6.131 2.38-12.36-.178-1.517-.472-3.099-.847-4.746zm-15.214 2.169c-1.484.082-3 .114-4.533.114-1.517 0-3.017-.049-4.485-.114a67.226 67.226 0 0 0 4.534 5.218 63.649 63.649 0 0 0 4.484-5.218zM40 26.617c-2.479 0-4.94.114-7.37.326-1.354 1.94-2.659 4.028-3.93 6.23a85.034 85.034 0 0 0-3.376 6.506 84.939 84.939 0 0 0 3.392 6.49 89.889 89.889 0 0 0 3.946 6.196c2.413.196 4.876.31 7.338.31 2.479 0 4.94-.114 7.37-.326 1.354-1.94 2.659-4.028 3.93-6.23a91.301 91.301 0 0 0 3.376-6.505 84.939 84.939 0 0 0-3.392-6.49 89.889 89.889 0 0 0-3.946-6.197 91.045 91.045 0 0 0-7.338-.31zM56.567 44a92.624 92.624 0 0 1-2.12 3.93c-.75 1.32-1.549 2.609-2.348 3.865a73.185 73.185 0 0 0 6.719-1.305 69.883 69.883 0 0 0-2.25-6.49zm-33.15.065a73.442 73.442 0 0 0-2.202 6.441 73.58 73.58 0 0 0 6.686 1.289 108 108 0 0 1-2.349-3.816 77.171 77.171 0 0 1-2.136-3.914zm-5.773-14.333c-1.582.505-3.115 1.043-4.517 1.647-5.773 2.446-9.507 5.69-9.507 8.25 0 2.561 3.734 5.79 9.507 8.252a49.536 49.536 0 0 0 4.566 1.663c.913-3.18 2.12-6.49 3.62-9.882-1.517-3.408-2.74-6.734-3.67-9.93zm44.647-.017c-.913 3.18-2.12 6.49-3.62 9.882 1.517 3.408 2.74 6.735 3.669 9.93 1.582-.505 3.115-1.043 4.517-1.646 5.772-2.446 9.507-5.691 9.523-8.251 0-2.56-3.734-5.789-9.507-8.251a51.719 51.719 0 0 0-4.582-1.664zm-22.307 2.463a7.452 7.452 0 1 1 0 14.904 7.452 7.452 0 0 1 0-14.904zm-12.1-4.713a79.193 79.193 0 0 0-6.718 1.288c.62 2.12 1.37 4.305 2.25 6.49a90.085 90.085 0 0 1 4.468-7.778zm24.2 0a88.23 88.23 0 0 1 2.347 3.816 77.171 77.171 0 0 1 2.136 3.913 73.442 73.442 0 0 0 2.202-6.44 73.58 73.58 0 0 0-6.686-1.289zM23.676 7.702v.016c-.75 0-1.386.13-1.875.424-2.202 1.288-3.147 6.131-2.38 12.36.195 1.517.472 3.098.847 4.73 3.196-.8 6.686-1.403 10.371-1.795a77.018 77.018 0 0 1 6.735-8.137c-5.316-4.908-10.322-7.598-13.698-7.598zm32.564-.066l-.217.005c-3.385.12-8.269 2.815-13.464 7.643 2.3 2.397 4.582 5.137 6.784 8.153 3.669.392 7.158.995 10.354 1.778.36-1.647.653-3.261.832-4.794.75-6.23-.212-11.072-2.43-12.344-.505-.278-1.109-.424-1.859-.424v-.017zm-16.29 10.225a63.649 63.649 0 0 0-4.484 5.218c1.484-.082 3-.114 4.533-.114 1.517 0 3.017.048 4.484.114a67.226 67.226 0 0 0-4.533-5.218z"/></svg>