<svg xmlns="http://www.w3.org/2000/svg" width="80" height="80"><g fill="#E25A1C" fill-rule="evenodd" stroke-linecap="round" stroke-linejoin="round"><path d="M60.82 55.179l-.357-.763-7.836-14.856c-.265-.497-.232-.792.118-1.216l12.397-14.56c.144-.172.276-.353.333-.656l-3.619.948-15.034 3.995c-.467.126-.677-.012-.91-.398l-8.543-14.225a2.055 2.055 0 0 0-.622-.693l-.689 3.796-2.383 13.412-.246 1.448c-.04.474-.277.633-.694.763l-17.698 5.593a1.957 1.957 0 0 0-.79.44l14.56 5.782-.426.334-9.059 5.856a.96.96 0 0 1-1.05.085L7.445 45.44c-1.62-.71-3.077-1.687-4.212-3.072-2.564-3.139-2.059-6.708 1.36-8.88 1.12-.713 2.387-1.248 3.655-1.66l17.384-5.523c.474-.152.71-.37.8-.896l2.383-13.41c.43-2.387.66-4.852 1.822-7.027.446-.828.982-1.667 1.618-2.372 2.302-2.556 5.516-2.653 7.95-.221.823.822 1.54 1.79 2.14 2.785l7.933 13.181c.31.521.591.616 1.166.474l19.434-5.162c1.335-.353 2.687-.482 4.056-.236 2.984.559 4.29 2.84 3.28 5.713-.46 1.303-1.254 2.425-2.13 3.471L62.506 38.547c-.37.434-.379.746-.123 1.231l8.076 15.31c.644 1.223 1.136 2.49 1.149 3.893.032 3.19-2.302 5.803-5.472 6.267-1.776.26-3.427-.119-5.09-.633l-12.194-3.708c-.377-.111-.52-.261-.587-.665l-1.47-8.571c-.013-.078.009-.164.02-.338l13.994 3.86"/><path d="M28.796 43.991l2.581 1.125-2.868 22.847L44.2 50.584l2.644.742 3.255 9.896-4.231-1.492-10.948 11.82s-4.896 5.068-7.55 4.213c-2.653-.854-4.893-3.22-5.142-7.448-.248-4.23-1.368-16.3-1.368-16.3l-5.35-3.858 13.287-4.166z"/><path d="M20.845 52.018s-2.363 26.13 2.24 27c4.603.87-.497-.124-.497-.124s2.613 2.988 12.94-8.086l10.325-11.073L25.2 71.928c.497-.622 2.612-21.774 2.612-21.774l-6.966 1.864z"/><path d="M60.205 54.564l-.357-.763-7.836-14.856c-.265-.497-.232-.792.118-1.216l12.397-14.56c.144-.172.276-.353.333-.656l-3.619.948-15.034 3.995c-.467.126-.677-.012-.91-.398l-8.543-14.225a2.055 2.055 0 0 0-.622-.693l-.689 3.796-2.383 13.412-.246 1.448c-.04.474-.277.633-.694.763l-17.698 5.593a1.957 1.957 0 0 0-.79.44l14.56 5.782-.426.334-9.059 5.856a.96.96 0 0 1-1.05.085L6.83 44.825c-1.62-.71-3.077-1.687-4.212-3.072-2.564-3.139-2.059-6.708 1.36-8.88 1.12-.713 2.387-1.248 3.655-1.66l17.384-5.523c.474-.152.71-.37.8-.896l2.383-13.41c.43-2.387.66-4.852 1.822-7.027.446-.828.982-1.667 1.618-2.372 2.302-2.556 5.516-2.653 7.95-.221.823.822 1.54 1.79 2.14 2.785l7.933 13.181c.31.521.591.616 1.166.474l19.434-5.162c1.335-.353 2.687-.482 4.056-.236 2.984.559 4.29 2.84 3.28 5.713-.46 1.303-1.254 2.425-2.13 3.471L61.89 37.932c-.37.434-.379.746-.123 1.231l8.076 15.31c.644 1.223 1.136 2.49 1.149 3.893.032 3.19-2.302 5.803-5.472 6.267-1.776.26-3.427-.119-5.09-.633l-12.194-3.708c-.377-.111-.52-.261-.587-.665l-1.47-8.571c-.013-.078.009-.164.02-.338l13.994 3.86"/><g><path d="M28.181 43.376l2.581 1.125-2.868 22.847 15.69-17.379 2.644.742 3.255 9.896-4.231-1.492-10.948 11.82s-4.896 5.068-7.55 4.213c-2.653-.854-4.893-3.22-5.142-7.448-.248-4.23-1.368-16.3-1.368-16.3l-5.35-3.858 13.287-4.166z"/><path d="M20.23 51.403s-2.363 26.13 2.24 27c4.603.87-.497-.124-.497-.124s2.613 2.988 12.94-8.086L45.237 59.12 24.584 71.313c.497-.622 2.612-21.774 2.612-21.774l-6.966 1.864z"/></g></g></svg>