<svg xmlns="http://www.w3.org/2000/svg" width="80" height="80"><defs><linearGradient id="a" x1="50%" x2="50%" y1="0%" y2="100%"><stop offset="0%" stop-color="#F88A36"/><stop offset="100%" stop-color="#FD2020"/></linearGradient></defs><path fill="url(#a)" d="M60.343 70.728c-9.423 5.443-22.38 6.003-35.416.416C14.372 66.653 5.614 58.792 0 49.81c2.695 2.245 5.839 4.042 9.207 5.613 13.462 6.31 26.922 5.878 36.394.016l-.014-.016C32.113 45.094 20.66 31.62 12.127 20.618c-1.797-1.797-3.145-4.043-4.492-6.064 10.33 9.432 26.724 21.333 32.561 24.703C27.846 26.23 16.842 10.064 17.29 10.512c19.538 19.762 37.729 30.99 37.729 30.99.602.34 1.066.622 1.44.875a29.547 29.547 0 0 0 1.03-3.12C60.631 27.804 57.04 14.778 49.178 4c18.19 11.004 28.97 31.663 24.477 48.955-.117.466-.245.927-.382 1.38.053.062.105.126.158.193 8.981 11.229 6.512 23.13 5.389 20.884-4.872-9.534-13.892-6.619-18.478-4.684z"/></svg>